<svg width="27" height="27" viewBox="0 0 27 27" fill="none" xmlns="http://www.w3.org/2000/svg">
<g id="Group">
<path id="Vector" d="M8.35716 1.03127C7.95566 1.31898 7.92592 1.38063 7.92592 2.15129C7.92592 3.04526 8.20846 3.46655 8.86275 3.52821L9.1899 3.55903L9.23451 6.1279C9.24938 7.53564 9.23451 8.79953 9.1899 8.91256C9.14529 9.06669 8.6397 9.29275 7.45007 9.70377C4.62469 10.6594 2.78076 11.913 1.38295 13.8345C0.312278 15.2936 0 16.1979 0 17.842C0 19.3627 0.312278 20.3903 1.15989 21.6542C1.66548 22.4145 2.6618 23.5037 3.0633 23.7401C3.39045 23.9148 3.91091 23.7915 3.91091 23.5243C3.91091 23.4113 3.55402 22.9386 3.10791 22.4865C1.7101 21.0068 1.08554 19.6196 1.08554 17.9242C1.08554 16.2904 1.62087 14.8929 2.75102 13.5982L3.22688 13.0639H13.1306H23.0342L23.5696 13.7009C23.867 14.0606 24.328 14.7901 24.5956 15.3245C25.4581 17.0918 25.354 19.2805 24.328 21.0479C22.9896 23.3496 19.8222 25.302 16.3277 25.9699C15.0042 26.2165 11.9707 26.2781 10.6918 26.0726C9.1899 25.826 7.8367 25.4253 6.58758 24.8601C5.36821 24.3052 4.90723 24.2641 4.83288 24.6854C4.80314 24.9012 4.93697 25.0142 5.69536 25.3842C8.25307 26.6275 11.6138 27.2029 14.6919 26.9358C20.2683 26.4528 24.67 23.699 26.0083 19.8868C26.3503 18.9209 26.3503 16.8452 26.0232 15.8999C25.012 13.0741 22.5881 10.9882 18.811 9.70377C17.6214 9.29275 17.1158 9.06669 17.0712 8.91256C17.0266 8.79953 17.0117 7.53564 17.0266 6.1279L17.0712 3.55903L17.3984 3.52821C18.0527 3.46655 18.3352 3.04526 18.3352 2.15129C18.3352 1.38063 18.3055 1.31898 17.904 1.03127L17.4727 0.733276H13.1306H8.7884L8.35716 1.03127ZM17.1456 2.17184V2.78837H13.1306H9.11555V2.17184V1.55532H13.1306H17.1456V2.17184ZM15.9559 6.35396C15.9559 9.74487 15.8221 9.51881 18.2162 10.3306C19.2869 10.7005 20.2981 11.1423 21.0119 11.5431L22.1123 12.1904L17.6214 12.2213C15.1529 12.2315 11.1082 12.2315 8.6397 12.2213L4.13397 12.1904L5.24925 11.5431C5.94816 11.1423 7.00396 10.6902 8.04488 10.3203C10.439 9.50854 10.3052 9.74487 10.3052 6.35396V3.61041H13.1306H15.9559V6.35396Z" fill="#A3CFD4"/>
<path id="Vector_2" d="M10.7958 14.0604C10.5281 14.1324 10.5579 14.5537 10.8404 14.7181C11.3014 14.9852 11.8813 14.4612 11.4947 14.1426C11.3014 13.9885 11.1229 13.968 10.7958 14.0604Z" fill="#A3CFD4"/>
<path id="Vector_3" d="M18.7962 14.8005C18.6029 15.0472 18.9152 15.3657 19.3018 15.3143C19.6438 15.2629 19.8966 14.9855 19.7776 14.7697C19.6438 14.5437 18.9746 14.5642 18.7962 14.8005Z" fill="#A3CFD4"/>
<path id="Vector_4" d="M5.85892 15.3655C5.57638 15.5916 5.79944 15.9409 6.20094 15.9409C6.67679 15.9409 6.98907 15.6738 6.78089 15.4477C6.5727 15.2114 6.08198 15.1703 5.85892 15.3655Z" fill="#A3CFD4"/>
<path id="Vector_5" d="M8.99661 15.3142C8.87765 15.3553 8.81817 15.5095 8.84791 15.643C8.87765 15.8383 8.98174 15.8896 9.33863 15.8896C9.74013 15.8896 9.78475 15.8588 9.78475 15.5814C9.78475 15.3553 9.71039 15.2628 9.48734 15.2423C9.32376 15.232 9.10071 15.2628 8.99661 15.3142Z" fill="#A3CFD4"/>
<path id="Vector_6" d="M16.1641 15.3656C15.9856 15.6841 16.1641 15.8896 16.6251 15.8896C17.0266 15.8896 17.0712 15.8588 17.0712 15.5814C17.0712 15.3245 17.0117 15.2731 16.6548 15.2423C16.402 15.2217 16.2236 15.2628 16.1641 15.3656Z" fill="#A3CFD4"/>
<path id="Vector_7" d="M19.5248 16.917C19.3166 17.0917 19.4505 17.4411 19.7627 17.5233C20.0899 17.6055 20.5657 17.4102 20.5657 17.1945C20.5657 16.804 19.8817 16.619 19.5248 16.917Z" fill="#A3CFD4"/>
<path id="Vector_8" d="M6.29027 17.2663C6.20105 17.3999 6.14157 18.037 6.17131 18.9823C6.21592 20.2873 6.24566 20.5031 6.48359 20.6058C6.66203 20.688 6.81074 20.688 7.00405 20.6058C7.19737 20.5133 7.27172 20.3078 7.3312 19.6502L7.40555 18.7973L8.31265 19.7119C9.21974 20.6161 9.54689 20.7908 9.93352 20.5647C10.112 20.462 10.1566 20.1023 10.1566 18.8076C10.1566 17.2663 10.1417 17.1841 9.85917 17.1224C9.29409 16.9991 9.13052 17.2355 9.08591 18.1808L9.0413 19.0748L8.07472 18.0986C7.04866 17.0711 6.61742 16.8656 6.29027 17.2663Z" fill="#A3CFD4"/>
<path id="Vector_9" d="M11.6584 17.2151C11.5394 17.3076 11.4948 17.8522 11.5245 18.9209C11.5692 20.2875 11.5989 20.5033 11.8368 20.606C12.3275 20.8218 12.6101 20.5649 12.6547 19.8559L12.6993 19.2291H13.5023H14.3053L14.3499 19.8559C14.3945 20.5649 14.6771 20.8218 15.1827 20.606C15.4057 20.5033 15.4355 20.2978 15.4355 18.8695C15.4355 17.4412 15.4057 17.2357 15.1827 17.1329C14.6919 16.9274 14.3945 17.174 14.3499 17.8317L14.3053 18.4071H13.5023H12.6844V17.9344C12.6844 17.6775 12.6101 17.3795 12.5357 17.2665C12.3573 17.0405 11.8963 17.0096 11.6584 17.2151Z" fill="#A3CFD4"/>
<path id="Vector_10" d="M17.4877 18.6024C17.2349 18.7154 16.9821 18.9004 16.9226 19.0237C16.7293 19.445 17.4877 19.7224 17.8892 19.373C18.1866 19.1367 18.8409 19.2292 18.9004 19.5169C18.945 19.7018 18.8409 19.784 18.4245 19.8971C18.0081 20.0204 17.8892 20.1129 17.8892 20.3081C17.8892 20.5033 18.0081 20.5958 18.4245 20.7191C18.8409 20.8321 18.945 20.9143 18.9004 21.0993C18.8409 21.387 18.1866 21.4795 17.8892 21.2432C17.6364 21.0171 17.1903 21.0377 16.9969 21.2843C16.7888 21.5514 17.0118 21.8494 17.5918 22.0549C18.9896 22.5584 20.5212 21.6542 19.9413 20.6677C19.748 20.3595 19.748 20.2567 19.9413 19.9485C20.551 18.9312 18.8855 18.0167 17.4877 18.6024Z" fill="#A3CFD4"/>
</g>
</svg>
