<svg width="50" height="50" viewBox="0 0 50 50" fill="none" xmlns="http://www.w3.org/2000/svg">
<circle cx="25" cy="25" r="25" fill="url(#paint0_linear_282_2983)"/>
<path d="M24.5121 9.8419C24.1232 10.1024 23.8825 10.4306 22.0495 13.3352C17.2354 20.9588 15.1524 25.0408 14.5229 28.1288C14.1433 29.9527 14.5599 32.5678 15.5227 34.5171C17.0225 37.528 19.6239 39.5738 22.9012 40.3168C23.8455 40.5291 26.0304 40.5291 26.9747 40.3168C29.6965 39.6992 31.835 38.2807 33.4366 36.0322C34.742 34.1987 35.4919 31.8827 35.4919 29.6921C35.4919 26.9418 33.9273 23.2845 29.9372 16.7128C28.243 13.9335 25.91 10.3244 25.6138 10.0349C25.2527 9.67785 24.8731 9.61029 24.5121 9.8419ZM33.2607 28.7561C33.7884 29.0552 33.9458 29.4605 33.881 30.3773C33.7422 32.4327 32.7053 34.6716 31.1592 36.2542C29.465 38.0008 28.2337 38.2807 27.6412 37.0744C27.2524 36.2735 27.4561 35.7813 28.4837 35.0576C30.076 33.9381 31.1129 32.1915 31.3166 30.2711C31.4092 29.4219 31.6314 28.978 32.0665 28.7561C32.4831 28.5341 32.8719 28.5341 33.2607 28.7561Z" fill="white"/>
<defs>
<linearGradient id="paint0_linear_282_2983" x1="25" y1="0" x2="25" y2="50" gradientUnits="userSpaceOnUse">
<stop stop-color="#08D924"/>
<stop offset="1" stop-color="#08D924" stop-opacity="0.24"/>
</linearGradient>
</defs>
</svg>
