<svg width="118" height="114" viewBox="0 0 118 114" fill="none" xmlns="http://www.w3.org/2000/svg">
<g filter="url(#filter0_f_380_164)">
<circle cx="59" cy="59" r="32" fill="url(#paint0_linear_380_164)" fill-opacity="0.4"/>
</g>
<g filter="url(#filter1_ddi_380_164)">
<circle cx="59" cy="59" r="29" fill="url(#paint1_linear_380_164)" shape-rendering="crispEdges"/>
<circle cx="59" cy="59" r="28" stroke="url(#paint2_linear_380_164)" stroke-width="2" shape-rendering="crispEdges"/>
</g>
<mask id="mask0_380_164" style="mask-type:alpha" maskUnits="userSpaceOnUse" x="30" y="30" width="58" height="58">
<circle cx="59" cy="59" r="28" fill="url(#paint3_linear_380_164)" stroke="url(#paint4_linear_380_164)" stroke-width="2"/>
</mask>
<g mask="url(#mask0_380_164)">
<g filter="url(#filter2_f_380_164)">
<mask id="path-5-inside-1_380_164" fill="white">
<path d="M88 59C88 75.0163 75.0163 88 59 88C42.9837 88 30 75.0163 30 59C30 42.9837 42.9837 30 59 30C75.0163 30 88 42.9837 88 59ZM32.9 59C32.9 73.4146 44.5854 85.1 59 85.1C73.4146 85.1 85.1 73.4146 85.1 59C85.1 44.5854 73.4146 32.9 59 32.9C44.5854 32.9 32.9 44.5854 32.9 59Z"/>
</mask>
<path d="M88 59C88 75.0163 75.0163 88 59 88C42.9837 88 30 75.0163 30 59C30 42.9837 42.9837 30 59 30C75.0163 30 88 42.9837 88 59ZM32.9 59C32.9 73.4146 44.5854 85.1 59 85.1C73.4146 85.1 85.1 73.4146 85.1 59C85.1 44.5854 73.4146 32.9 59 32.9C44.5854 32.9 32.9 44.5854 32.9 59Z" fill="url(#paint5_linear_380_164)"/>
<path d="M88 59C88 75.0163 75.0163 88 59 88C42.9837 88 30 75.0163 30 59C30 42.9837 42.9837 30 59 30C75.0163 30 88 42.9837 88 59ZM32.9 59C32.9 73.4146 44.5854 85.1 59 85.1C73.4146 85.1 85.1 73.4146 85.1 59C85.1 44.5854 73.4146 32.9 59 32.9C44.5854 32.9 32.9 44.5854 32.9 59Z" stroke="url(#paint6_linear_380_164)" stroke-width="4" mask="url(#path-5-inside-1_380_164)"/>
</g>
</g>
<path d="M56.2292 44.125C59.1742 44.125 61.9986 45.2949 64.081 47.3773C66.1634 49.4598 67.3333 52.2842 67.3333 55.2292C67.3333 57.9796 66.3254 60.5079 64.6683 62.4554L65.1296 62.9167H66.4792L75.0208 71.4583L72.4583 74.0208L63.9167 65.4792V64.1296L63.4554 63.6683C61.5079 65.3254 58.9796 66.3333 56.2292 66.3333C53.2842 66.3333 50.4598 65.1634 48.3773 63.081C46.2949 60.9986 45.125 58.1742 45.125 55.2292C45.125 52.2842 46.2949 49.4598 48.3773 47.3773C50.4598 45.2949 53.2842 44.125 56.2292 44.125ZM56.2292 47.5417C51.9583 47.5417 48.5417 50.9583 48.5417 55.2292C48.5417 59.5 51.9583 62.9167 56.2292 62.9167C60.5 62.9167 63.9167 59.5 63.9167 55.2292C63.9167 50.9583 60.5 47.5417 56.2292 47.5417Z" fill="black"/>
<defs>
<filter id="filter0_f_380_164" x="26" y="26" width="66" height="66" filterUnits="userSpaceOnUse" color-interpolation-filters="sRGB">
<feFlood flood-opacity="0" result="BackgroundImageFix"/>
<feBlend mode="normal" in="SourceGraphic" in2="BackgroundImageFix" result="shape"/>
<feGaussianBlur stdDeviation="0.5" result="effect1_foregroundBlur_380_164"/>
</filter>
<filter id="filter1_ddi_380_164" x="0" y="0" width="118" height="118" filterUnits="userSpaceOnUse" color-interpolation-filters="sRGB">
<feFlood flood-opacity="0" result="BackgroundImageFix"/>
<feColorMatrix in="SourceAlpha" type="matrix" values="0 0 0 0 0 0 0 0 0 0 0 0 0 0 0 0 0 0 127 0" result="hardAlpha"/>
<feOffset dx="10" dy="10"/>
<feGaussianBlur stdDeviation="10"/>
<feComposite in2="hardAlpha" operator="out"/>
<feColorMatrix type="matrix" values="0 0 0 0 0.0509804 0 0 0 0 0.0666667 0 0 0 0 0.266667 0 0 0 0.5 0"/>
<feBlend mode="normal" in2="BackgroundImageFix" result="effect1_dropShadow_380_164"/>
<feColorMatrix in="SourceAlpha" type="matrix" values="0 0 0 0 0 0 0 0 0 0 0 0 0 0 0 0 0 0 127 0" result="hardAlpha"/>
<feOffset dx="-10" dy="-10"/>
<feGaussianBlur stdDeviation="10"/>
<feComposite in2="hardAlpha" operator="out"/>
<feColorMatrix type="matrix" values="0 0 0 0 1 0 0 0 0 1 0 0 0 0 1 0 0 0 0.5 0"/>
<feBlend mode="overlay" in2="effect1_dropShadow_380_164" result="effect2_dropShadow_380_164"/>
<feBlend mode="normal" in="SourceGraphic" in2="effect2_dropShadow_380_164" result="shape"/>
<feColorMatrix in="SourceAlpha" type="matrix" values="0 0 0 0 0 0 0 0 0 0 0 0 0 0 0 0 0 0 127 0" result="hardAlpha"/>
<feOffset dx="1" dy="1"/>
<feGaussianBlur stdDeviation="0.75"/>
<feComposite in2="hardAlpha" operator="arithmetic" k2="-1" k3="1"/>
<feColorMatrix type="matrix" values="0 0 0 0 1 0 0 0 0 1 0 0 0 0 1 0 0 0 1 0"/>
<feBlend mode="normal" in2="shape" result="effect3_innerShadow_380_164"/>
</filter>
<filter id="filter2_f_380_164" x="28" y="28" width="62" height="62" filterUnits="userSpaceOnUse" color-interpolation-filters="sRGB">
<feFlood flood-opacity="0" result="BackgroundImageFix"/>
<feBlend mode="normal" in="SourceGraphic" in2="BackgroundImageFix" result="shape"/>
<feGaussianBlur stdDeviation="1" result="effect1_foregroundBlur_380_164"/>
</filter>
<linearGradient id="paint0_linear_380_164" x1="34.5" y1="38.5" x2="79" y2="81" gradientUnits="userSpaceOnUse">
<stop/>
<stop offset="1" stop-color="white" stop-opacity="0.7"/>
</linearGradient>
<linearGradient id="paint1_linear_380_164" x1="36.7969" y1="40.4219" x2="77.125" y2="78.9375" gradientUnits="userSpaceOnUse">
<stop stop-color="#F5F5F9"/>
<stop offset="1" stop-color="#DADFE7" stop-opacity="0.7"/>
</linearGradient>
<linearGradient id="paint2_linear_380_164" x1="59" y1="30" x2="59" y2="88" gradientUnits="userSpaceOnUse">
<stop stop-color="white"/>
<stop offset="1" stop-color="#AEAEAE" stop-opacity="0"/>
</linearGradient>
<linearGradient id="paint3_linear_380_164" x1="36.7969" y1="40.4219" x2="77.125" y2="78.9375" gradientUnits="userSpaceOnUse">
<stop stop-color="#F5F5F9"/>
<stop offset="1" stop-color="#DADFE7" stop-opacity="0.7"/>
</linearGradient>
<linearGradient id="paint4_linear_380_164" x1="59" y1="30" x2="59" y2="88" gradientUnits="userSpaceOnUse">
<stop stop-color="white"/>
<stop offset="1" stop-color="#AEAEAE" stop-opacity="0"/>
</linearGradient>
<linearGradient id="paint5_linear_380_164" x1="36.7969" y1="40.4219" x2="77.125" y2="78.9375" gradientUnits="userSpaceOnUse">
<stop stop-color="white" stop-opacity="0"/>
<stop offset="1" stop-color="#BBBFC7"/>
</linearGradient>
<linearGradient id="paint6_linear_380_164" x1="59" y1="30" x2="59" y2="88" gradientUnits="userSpaceOnUse">
<stop stop-color="white"/>
<stop offset="1" stop-color="#AEAEAE" stop-opacity="0"/>
</linearGradient>
</defs>
</svg>
