<svg width="23" height="22" viewBox="0 0 23 22" fill="none" xmlns="http://www.w3.org/2000/svg">
<g id="Group">
<path id="Vector" d="M17.5713 0.105024C17.5045 0.181515 17.4451 0.28582 17.4451 0.348404C17.4451 0.515291 17.6975 0.68218 17.9721 0.689135C18.5289 0.696087 18.5289 0.779531 17.9499 1.04377L17.408 1.30106L16.6508 1.25933C15.6263 1.20371 15.3739 1.30106 15.4407 1.72523C15.463 1.89907 15.6041 1.9408 16.0198 1.89907C16.2276 1.87126 16.4058 1.86431 16.4058 1.87821C16.4058 1.89907 16.1385 2.10768 15.8045 2.35106L15.2032 2.7961H14.446C13.8521 2.80305 13.6443 2.83087 13.4884 2.92822C13.2434 3.07425 13.2211 3.34544 13.4364 3.48451C13.57 3.57491 13.6369 3.57491 13.9635 3.48451C14.1713 3.42888 14.3569 3.40107 14.3866 3.42193C14.4089 3.44974 14.1342 3.74875 13.7705 4.08948L13.1024 4.71531H12.5308C11.6399 4.71531 11.0832 4.98651 11.2762 5.33419C11.395 5.53585 11.5583 5.55671 12.0037 5.4385C12.2264 5.37591 12.4194 5.34114 12.4417 5.35505C12.4565 5.37591 12.2858 5.60538 12.0631 5.87658C11.6474 6.36333 11.6474 6.36333 11.2168 6.40506C10.7269 6.44678 9.96967 6.7736 9.73955 7.0448C9.39065 7.46202 9.87317 7.72626 10.378 7.39943C10.6823 7.20473 11.0609 7.0587 11.0609 7.13519C11.0535 7.16301 10.9125 7.41334 10.7417 7.69844C10.4522 8.17824 10.4002 8.22692 9.98452 8.39381C8.98978 8.79017 8.67057 9.09613 8.94524 9.37428C9.1234 9.56203 9.25702 9.54812 9.64304 9.30474C9.82121 9.18653 9.99937 9.09613 10.0291 9.09613C10.0588 9.09613 10.0736 9.38123 10.0588 9.73587L10.0365 10.3687L9.41292 10.5355C8.31425 10.8345 7.40859 11.3352 6.70336 12.0375C6.28765 12.4478 6.06495 12.8233 5.53046 14.0332C5.20383 14.7634 5.12217 14.8746 4.66192 15.3058C3.99381 15.9107 3.3257 16.2793 2.44973 16.5088C1.49953 16.7591 1.27683 16.9677 1.63316 17.2667C1.76678 17.3849 1.80389 17.378 2.39035 17.2319C3.61521 16.926 4.37983 16.5157 5.21125 15.723C5.72347 15.2362 5.94617 14.8816 6.42127 13.7968C6.89637 12.6981 7.38632 12.1697 8.4256 11.6342C9.13825 11.2657 10.3928 10.918 10.3928 11.0988C10.3928 11.1336 10.1701 11.3004 9.90286 11.4673C9.63562 11.6273 9.21248 11.9471 8.97493 12.1766C8.18805 12.9067 7.87627 13.4352 7.33435 14.9372C6.86668 16.2236 6.60686 16.6687 6.09464 17.0998C5.47107 17.6283 4.96628 17.9134 3.84534 18.3932C2.6279 18.9147 1.96721 19.2763 1.35849 19.7561C0.779461 20.2151 0 21.0425 0 21.1955C0 21.3346 0.230127 21.5432 0.386019 21.5432C0.445406 21.5432 0.749767 21.2859 1.05413 20.973C1.79647 20.2081 2.5982 19.6796 3.83792 19.1372C4.4021 18.8939 5.09248 18.574 5.37457 18.4349C6.00556 18.115 7.0968 17.1624 7.36405 16.6965C7.46798 16.5157 7.73522 15.8899 7.94308 15.3197C8.15093 14.7425 8.4256 14.0889 8.5518 13.8594C8.98236 13.0458 9.65047 12.3783 10.5264 11.8776C10.8605 11.6829 10.9421 11.662 11.0238 11.7455C11.1055 11.8289 11.0609 11.9402 10.7566 12.4339C10.2518 13.2475 9.96967 13.9776 9.83605 14.7773C9.5985 16.1958 9.56139 16.3558 9.42034 16.627C9.18279 17.0511 8.64088 17.517 7.69068 18.1011C6.72563 18.6922 6.25053 19.1025 5.84224 19.6657C5.53046 20.0968 5.50819 20.222 5.7012 20.3819C5.9239 20.5697 6.07237 20.521 6.33219 20.1733C6.76275 19.5823 7.14135 19.2415 7.90596 18.7756C9.07886 18.0525 9.4723 17.7326 9.82863 17.2389C10.2072 16.7174 10.3483 16.2932 10.467 15.3544C10.6081 14.2071 10.905 13.4144 11.5286 12.5104L11.7884 12.1349L12.5382 12.114C12.9465 12.1071 13.288 12.1279 13.288 12.1557C13.288 12.1836 13.1914 12.3435 13.0652 12.5104C12.8054 12.872 12.7906 12.9971 12.991 13.164C13.288 13.4213 13.6146 13.1223 14.0377 12.1905C14.2159 11.8011 14.2678 11.7524 14.7801 11.4812C15.0844 11.3213 15.3517 11.1892 15.3814 11.1822C15.463 11.1822 15.3071 11.5369 15.0993 11.822C14.7504 12.2948 15.0325 12.7468 15.4779 12.42C15.7674 12.2044 16.1163 11.4951 16.1608 11.0362C16.2054 10.6329 16.2054 10.6329 16.725 10.2435C17.0145 10.0349 17.2595 9.87494 17.2818 9.88885C17.2966 9.90971 17.2595 10.0905 17.1927 10.2991C17.0665 10.7163 17.0887 10.8693 17.2966 10.9736C17.6678 11.1614 17.9053 10.7581 17.9499 9.88885L17.9796 9.24911L18.6402 8.63719C19.004 8.30341 19.3158 8.04612 19.3455 8.06699C19.3677 8.0948 19.3381 8.26864 19.2787 8.46335C19.1822 8.76931 19.1822 8.83189 19.2787 8.95706C19.4271 9.15871 19.7166 9.13785 19.8725 8.90838C19.9765 8.76235 20.0062 8.56765 20.0136 8.01136V7.30208L20.4887 6.73883C20.7485 6.42592 20.9712 6.17559 20.9935 6.17559C21.0083 6.17559 21.0009 6.34247 20.9712 6.53718C20.9267 6.92658 20.9712 7.0587 21.1568 7.07956C21.6096 7.14215 21.7136 6.90572 21.6542 5.94611L21.6096 5.23684L21.8843 4.72922C22.1664 4.18683 22.2555 4.18683 22.2629 4.72227C22.2703 5.13949 22.6341 5.33419 22.9013 5.063C23.0201 4.93783 23.0275 4.87525 22.9458 4.43021C22.9013 4.15902 22.7825 3.76266 22.686 3.54014C22.5301 3.1855 22.5227 3.08815 22.5821 2.72656C22.6786 2.17027 22.5969 1.55834 22.3742 1.12026C22.2183 0.814301 22.1293 0.730856 21.7878 0.570921C21.3721 0.383171 20.7708 0.327543 19.8948 0.397079C19.6647 0.410986 19.3974 0.36231 19.0411 0.244099C18.759 0.146748 18.3359 0.0493946 18.1132 0.0215797C17.7643 -0.0201416 17.6826 -0.00623322 17.5713 0.105024ZM21.3275 1.10635C21.7061 1.20371 21.8397 1.42622 21.8843 2.03119C21.9956 3.63749 20.7114 5.75141 18.2468 8.05308C15.025 11.0571 12.4565 12.1418 11.2465 11.0084C10.6081 10.4173 10.6007 9.5968 11.2094 8.35209C12.0928 6.55804 14.8172 3.76266 17.0813 2.30934C18.6254 1.32192 20.3105 0.842115 21.3275 1.10635Z" fill="#A3CFD4"/>
<path id="Vector_2" d="M19.9765 2.15639C19.5979 2.34414 19.6276 2.90738 20.0136 3.05341C20.4293 3.19944 20.8524 2.85871 20.7411 2.46235C20.6594 2.14943 20.2883 2.00341 19.9765 2.15639Z" fill="#A3CFD4"/>
<path id="Vector_3" d="M17.5712 2.89348C17.4079 3.06037 17.4153 3.2064 17.5787 3.34547C17.7568 3.49845 17.9127 3.4915 18.0612 3.33852C18.2245 3.17163 18.2171 3.0256 18.0538 2.88653C17.8756 2.73355 17.7197 2.7405 17.5712 2.89348Z" fill="#A3CFD4"/>
<path id="Vector_4" d="M15.8935 4.24232C15.5149 4.43007 15.5446 4.99332 15.9306 5.13935C16.3463 5.28538 16.7694 4.94465 16.6581 4.54829C16.5764 4.23537 16.2053 4.08934 15.8935 4.24232Z" fill="#A3CFD4"/>
<path id="Vector_5" d="M19.0558 4.63176C18.8925 4.79865 18.9 4.94468 19.0633 5.08375C19.2414 5.23673 19.3973 5.22978 19.5458 5.0768C19.7091 4.90991 19.7017 4.76388 19.5384 4.62481C19.3602 4.47183 19.2043 4.47878 19.0558 4.63176Z" fill="#A3CFD4"/>
<path id="Vector_6" d="M14.2307 6.37029C14.0673 6.53717 14.0748 6.6832 14.2381 6.82228C14.4162 6.97526 14.5721 6.9683 14.7206 6.81532C14.8839 6.64843 14.8765 6.50241 14.7132 6.36333C14.535 6.21035 14.3791 6.21731 14.2307 6.37029Z" fill="#A3CFD4"/>
<path id="Vector_7" d="M17.5712 6.37029C17.4079 6.53717 17.4153 6.6832 17.5787 6.82228C17.7568 6.97526 17.9127 6.9683 18.0612 6.81532C18.2245 6.64843 18.2171 6.50241 18.0538 6.36333C17.8756 6.21035 17.7197 6.21731 17.5712 6.37029Z" fill="#A3CFD4"/>
<path id="Vector_8" d="M12.3749 8.10857C12.2116 8.27546 12.219 8.42148 12.3824 8.56056C12.5605 8.71354 12.7164 8.70658 12.8649 8.5536C13.0282 8.38671 13.0208 8.24069 12.8575 8.10161C12.6793 7.94863 12.5234 7.95559 12.3749 8.10857Z" fill="#A3CFD4"/>
<path id="Vector_9" d="M15.1513 8.06703C14.7727 8.25478 14.8024 8.81803 15.1884 8.96406C15.6041 9.11008 16.0273 8.76935 15.9159 8.37299C15.8342 8.06008 15.4631 7.91405 15.1513 8.06703Z" fill="#A3CFD4"/>
<path id="Vector_10" d="M13.1171 9.84709C12.9538 10.014 12.9612 10.16 13.1246 10.2991C13.3027 10.4521 13.4586 10.4451 13.6071 10.2921C13.7704 10.1252 13.763 9.97921 13.5997 9.84014C13.4215 9.68716 13.2656 9.69411 13.1171 9.84709Z" fill="#A3CFD4"/>
</g>
</svg>
