<svg width="20" height="19" viewBox="0 0 20 19" fill="none" xmlns="http://www.w3.org/2000/svg">
<g id="Group">
<path id="Vector" d="M13.602 0.0165224C12.8121 0.107468 12.0545 0.380304 11.7307 0.683456C11.5105 0.889599 11.2256 1.45346 11.1026 1.92032C11.0573 2.10221 11.0249 2.52662 11.0249 2.86009C11.0249 3.35119 11.0573 3.55733 11.1997 3.93931C11.4652 4.679 11.9897 5.32774 12.5401 5.59451C12.7991 5.71577 13.2588 5.73396 13.4013 5.62483C13.6344 5.44294 13.4466 5.13372 13.1099 5.13372C12.7473 5.13372 12.3782 4.85482 12.0027 4.27884C11.381 3.33907 11.5688 1.4474 12.3329 0.968419C12.702 0.738023 13.356 0.586448 13.997 0.586448C14.8129 0.586448 15.4216 0.780465 16.0173 1.23519C16.3346 1.47771 16.4835 1.71417 16.4835 1.98701C16.4835 2.16284 16.3475 2.31441 15.2856 3.31481C14.1071 4.42435 13.9776 4.58199 14.1654 4.75781C14.3532 4.93364 14.5215 4.81845 15.6223 3.78773L16.7425 2.73882L16.9173 2.90859L17.0986 3.07229L15.6935 4.38797C14.5798 5.43081 14.269 5.69152 14.2042 5.63089C14.1654 5.59451 14.0682 5.55814 13.9905 5.55814C13.7056 5.55814 13.602 5.8431 13.8092 6.0553C13.8869 6.13412 13.9258 6.27964 13.9323 6.48578C13.9387 6.99507 14.2625 7.43768 14.9359 7.86815C15.972 8.52296 17.5001 8.61997 18.7174 8.10461C19.2095 7.89847 19.4362 7.68626 19.6563 7.22547C19.9153 6.69192 20.006 6.26751 19.9995 5.58845C19.993 4.86089 19.7988 4.23033 19.4038 3.68466C18.9441 3.0541 18.4843 2.76308 17.9275 2.74489C17.6231 2.73882 17.5519 2.70851 17.3447 2.50843C17.131 2.31441 17.0986 2.24772 17.0922 1.96276C17.0727 1.44134 16.7619 1.01086 16.0885 0.580385C15.4604 0.180224 14.3467 -0.0683603 13.602 0.0165224ZM18.2965 3.40576C18.6656 3.58765 19.1513 4.2849 19.3326 4.90333C19.4362 5.26711 19.3844 6.26145 19.2419 6.68586C19.0282 7.31642 18.7045 7.58319 17.9339 7.76508C16.9497 7.99548 15.8619 7.81965 15.1496 7.31642C14.7287 7.01933 14.5409 6.75862 14.5409 6.46759C14.5409 6.27357 14.664 6.14625 16.1144 4.78813C17.526 3.46639 17.7073 3.31481 17.8951 3.31481C18.0116 3.31481 18.1929 3.35725 18.2965 3.40576Z" fill="#A3CFD4"/>
<path id="Vector_2" d="M6.38234 1.83573C5.9744 1.88424 5.34631 2.1207 5.09378 2.32684C4.9578 2.43597 4.79592 2.62999 4.74412 2.76338C4.65346 2.96952 4.59519 3.01196 4.31028 3.10291C3.98652 3.20598 3.97357 3.19991 3.64333 3.07259C3.19654 2.8907 2.76918 2.93314 2.12166 3.22417C1.02735 3.70921 0.230904 4.81268 0.0366477 6.10411C-0.0799058 6.8923 0.0690237 7.31671 0.664742 7.88664C1.71372 8.88704 3.30015 9.29326 4.54338 8.88704C5.43696 8.59601 5.9744 7.76538 5.32688 7.69262C5.18443 7.67443 5.12615 7.71687 5.02255 7.88664C4.77649 8.27467 4.25848 8.46869 3.4685 8.46869C2.59435 8.46869 1.8497 8.16554 1.11801 7.50467C0.690643 7.12876 0.619415 6.97718 0.619415 6.47395C0.619415 5.1704 1.66192 3.80622 2.84688 3.55763C3.18359 3.49094 3.50088 3.56976 3.60448 3.74559C3.63686 3.81228 3.89587 4.49134 4.18077 5.26135C4.45921 6.03135 4.72469 6.69829 4.77002 6.74679C4.86714 6.86199 5.15205 6.83167 5.23623 6.70435C5.30746 6.59521 5.30746 6.58915 4.67289 4.84906C4.47216 4.30945 4.31028 3.82441 4.31028 3.7759C4.31028 3.70921 4.69231 3.52126 4.73117 3.56976C4.78297 3.63039 5.99383 7.01356 5.99383 7.09238C5.99383 7.13482 5.93555 7.20152 5.86433 7.24396C5.57294 7.41372 5.79957 7.77751 6.15571 7.71687C6.29169 7.69262 6.46004 7.71687 6.64782 7.80176C7.01043 7.95333 7.32124 7.95333 7.81983 7.79569C9.10192 7.39553 10.0538 6.20718 10.2675 4.74599C10.384 3.97598 10.2221 3.53944 9.61346 2.95739C8.78464 2.18133 7.45075 1.71447 6.38234 1.83573ZM7.61263 2.49054C8.42203 2.72094 9.16667 3.2181 9.58109 3.80016C9.74297 4.03055 9.71707 4.69142 9.52281 5.29166C9.1861 6.31631 8.36375 7.11663 7.41837 7.32278C7.13994 7.38341 6.79675 7.29246 6.69963 7.12876C6.54422 6.84986 5.32688 3.4485 5.29451 3.20598C5.26861 2.98165 5.29451 2.93314 5.47581 2.76944C5.58589 2.67243 5.81252 2.55117 5.98088 2.50267C6.37587 2.39353 7.24354 2.38141 7.61263 2.49054Z" fill="#A3CFD4"/>
<path id="Vector_3" d="M6.31102 9.74183C5.26851 9.89341 4.31666 10.4391 3.81807 11.1727C3.54611 11.5729 3.45545 11.9306 3.53963 12.2701C3.59143 12.5126 3.58496 12.549 3.3648 12.834C3.18997 13.0644 3.09284 13.1371 2.96334 13.1371C2.71081 13.1371 2.25754 13.3675 2.05034 13.604C1.6683 14.0405 1.37692 14.7378 1.30569 15.4108C1.19561 16.3748 1.66182 17.6905 2.30287 18.2543C2.69786 18.5999 3.1576 18.7272 3.98642 18.7333C5.11958 18.7394 5.97431 18.4302 6.69953 17.7572C7.22402 17.2661 7.4377 16.8841 7.4377 16.4354C7.4377 16.0595 7.34705 15.9261 7.09451 15.9261C6.88731 15.9261 6.83551 16.011 6.83551 16.3627C6.83551 17.0357 6.01963 17.7754 4.96417 18.0724C4.51739 18.1937 3.59791 18.1998 3.16407 18.0785C2.44532 17.8784 1.91436 16.8659 1.91436 15.6957C1.91436 14.6408 2.56188 13.5797 3.12522 13.7131C3.22235 13.7313 3.86987 14.1375 4.56271 14.6044C5.26203 15.0773 5.90955 15.4714 6.00021 15.4896C6.20094 15.5199 6.34339 15.3744 6.29807 15.1864C6.27216 15.0955 5.83185 14.762 4.99655 14.1982L3.74036 13.3493L3.86339 13.1674C3.92814 13.0644 4.0188 12.9916 4.05765 13.0037C4.0965 13.0159 4.82172 13.4888 5.66997 14.0648L7.19812 15.1076L7.13337 15.2774C7.06861 15.429 7.08156 15.4653 7.21754 15.5684C7.41827 15.72 7.4377 15.7139 7.65786 15.5017C7.76146 15.3986 7.90391 15.3198 7.99457 15.3198C8.24062 15.3198 8.69389 15.0894 8.90109 14.853C9.46444 14.2103 9.74935 13.2038 9.61984 12.2762C9.45149 11.0393 8.79749 10.0571 7.99457 9.8449C7.5413 9.72364 6.77075 9.67514 6.31102 9.74183ZM7.78736 10.3784C8.30538 10.524 8.57733 10.8574 8.87519 11.7123C9.186 12.6036 9.06297 13.61 8.57086 14.2952C8.31833 14.6408 8.05932 14.7984 7.81974 14.7438C7.65786 14.7075 4.64689 12.7188 4.29723 12.4217C4.01232 12.1731 4.0447 11.8457 4.39436 11.4031C4.80229 10.8817 5.21023 10.621 5.92898 10.4027C6.38224 10.2633 7.3341 10.2511 7.78736 10.3784Z" fill="#A3CFD4"/>
<path id="Vector_4" d="M13.6345 10.0207C13.1035 10.1056 12.7215 10.1966 12.4172 10.3239C11.3746 10.7544 11.0185 11.3364 11.025 12.6218C11.0315 13.3554 11.1739 13.8829 11.5365 14.4528C11.7826 14.8469 12.3395 15.3562 12.6762 15.5017C13.0193 15.6472 13.5179 15.6594 13.6604 15.526C13.887 15.3198 13.7381 15.0773 13.3949 15.0773C12.7344 15.0773 11.9768 14.3255 11.7178 13.41C11.6078 13.0341 11.6013 12.1974 11.7049 11.8154C11.8603 11.2212 12.1387 10.9969 13.0453 10.718C14.1007 10.3966 15.4605 10.6816 15.9915 11.3364C16.2375 11.6396 16.2051 11.7972 15.8231 12.2701C15.6353 12.4945 15.1821 13.0462 14.8195 13.4949C14.4504 13.9375 14.1525 14.3376 14.1525 14.374C14.1525 14.4953 14.3921 14.665 14.5216 14.6408C14.6122 14.6226 16.1987 12.8097 16.4124 12.4763C16.4642 12.3974 16.4965 12.4035 16.639 12.4884C16.7296 12.549 16.8073 12.6218 16.8073 12.6582C16.8073 12.6885 16.3087 13.3251 15.6936 14.0648C15.0849 14.8045 14.5734 15.4168 14.5669 15.429C14.5604 15.4411 14.4892 15.4168 14.4115 15.3805C14.3014 15.3259 14.2432 15.332 14.1137 15.4108C13.9129 15.532 13.9129 15.7079 14.1201 15.8776C14.2302 15.9686 14.282 16.0716 14.282 16.205C14.282 16.8053 15.0137 17.4298 16.0562 17.7329C16.4642 17.8481 17.429 17.8542 17.9081 17.745C18.6981 17.5692 19.4104 17.1691 19.65 16.775C19.909 16.3384 19.9996 15.9383 19.9931 15.2289C19.9931 14.6832 19.9608 14.4831 19.8313 14.1254C19.6176 13.5434 19.378 13.1735 18.9636 12.7855C18.5297 12.3732 18.1412 12.2095 17.6815 12.2398C17.3772 12.258 17.3059 12.2337 17.0404 12.0579C16.7879 11.8882 16.7426 11.8275 16.7426 11.6578C16.7426 11.0515 15.9979 10.4088 15.0008 10.1359C14.677 10.045 13.8935 9.9783 13.6345 10.0207ZM18.07 12.8582C18.5556 13.0523 19.1125 13.7616 19.3068 14.4407C19.4233 14.8469 19.4233 15.7079 19.3003 16.0959C19.1255 16.6416 18.8341 16.872 17.9793 17.1327C16.9239 17.4601 15.5058 17.1448 15.0008 16.4779C14.7936 16.205 14.8324 16.0353 15.2015 15.5805C16.4771 14.0163 17.3577 12.9674 17.4678 12.8764C17.6297 12.7491 17.7786 12.743 18.07 12.8582Z" fill="#A3CFD4"/>
</g>
</svg>
