<svg width="22" height="32" viewBox="0 0 22 32" fill="none" xmlns="http://www.w3.org/2000/svg">
<g id="Group">
<path id="Vector" d="M10.5121 0.842011C10.1233 1.10256 9.88256 1.43067 8.0495 4.33534C3.23542 11.9589 1.1524 16.0409 0.52287 19.1289C0.143299 20.9528 0.559902 23.5679 1.52272 25.5173C3.02249 28.5281 5.62395 30.5739 8.90123 31.317C9.84553 31.5293 12.0304 31.5293 12.9747 31.317C15.6965 30.6994 17.8351 29.2808 19.4367 27.0323C20.742 25.1988 21.4919 22.8828 21.4919 20.6922C21.4919 17.942 19.9273 14.2846 15.9372 7.71287C14.243 4.93364 11.91 1.32452 11.6138 1.03501C11.2527 0.67796 10.8731 0.610409 10.5121 0.842011ZM19.2608 19.7562C19.7885 20.0553 19.9458 20.4606 19.881 21.3774C19.7422 23.4328 18.7053 25.6717 17.1592 27.2543C15.465 29.0009 14.2337 29.2808 13.6412 28.0745C13.2524 27.2736 13.4561 26.7814 14.4837 26.0577C16.0761 24.9383 17.1129 23.1916 17.3166 21.2712C17.4092 20.422 17.6314 19.9781 18.0665 19.7562C18.4831 19.5342 18.8719 19.5342 19.2608 19.7562Z" fill="white"/>
</g>
</svg>
