<svg width="26" height="24" viewBox="0 0 26 24" fill="none" xmlns="http://www.w3.org/2000/svg">
<g id="Group">
<path id="Vector" d="M0.324805 0.444372C0.0541341 0.730016 -0.0473673 3.04691 0.0203003 8.09328C0.121802 14.5679 0.189469 15.3613 0.73081 15.6787C1.13682 15.9326 1.47515 15.9326 1.91499 15.6787C2.38867 15.3931 2.524 14.7583 2.59167 12.251L2.69317 9.20412H5.70438H8.71559L8.81709 12.4414L8.91859 15.7104H9.93361H10.9486V7.93459V0.158729H9.93361H8.91859L8.81709 3.39603L8.71559 6.66506H5.70438H2.65934V3.71341C2.65934 0.698277 2.38867 3.71933e-05 1.27215 3.71933e-05C0.967647 3.71933e-05 0.527807 0.190467 0.324805 0.444372Z" fill="#A3CFD4"/>
<path id="Vector_2" d="M17.8846 5.74462C15.7869 6.53808 14.5012 8.44237 14.5012 10.7275C14.5012 14.3139 18.4598 16.853 22.08 15.5517L22.9597 15.2343V17.5512C22.9258 19.9316 22.6552 20.5664 21.3695 21.2011C19.5425 22.1215 17.8508 21.3281 17.1064 19.2334C16.5312 17.6782 15.7869 17.1704 15.0087 17.7734C14.5689 18.1225 14.4674 18.5669 14.6027 19.5825C15.1779 24.5654 22.6213 25.6762 24.9559 21.1377C25.6325 19.8681 25.6664 19.3286 25.5987 12.854C25.4972 6.66503 25.4295 5.90331 24.922 5.58593C24.4822 5.33203 24.1439 5.33203 23.6363 5.61767C23.1627 5.90331 22.7228 5.93505 22.1138 5.71288C20.9973 5.33203 19.0011 5.33203 17.8846 5.74462ZM22.1138 8.72801C24.0085 10.4736 22.6552 13.3301 19.9823 13.3301C18.2229 13.3301 17.0726 12.1875 17.1064 10.5688C17.1741 8.18847 20.3545 7.04589 22.1138 8.72801Z" fill="#A3CFD4"/>
</g>
</svg>
