<svg width="21" height="20" viewBox="0 0 21 20" fill="none" xmlns="http://www.w3.org/2000/svg">
<path id="Vector" d="M10.0065 0.060955C9.52067 0.205013 8.23552 1.05057 6.46452 2.37841L5.44581 3.14881L5.06967 2.76674C4.85809 2.55378 4.47411 2.2093 4.21551 1.99008C3.80019 1.65186 3.70615 1.60175 3.44756 1.60175C3.18896 1.60175 3.09493 1.64559 2.71878 1.95876C1.55118 2.94211 0.657843 3.94426 0.234684 4.73344C-0.0160766 5.2032 -0.0630943 5.81701 0.11714 6.33687C0.258193 6.75026 0.689188 7.34528 1.03398 7.60208L1.22989 7.74614L0.939949 8.29105C-0.149293 10.3141 -0.290346 12.2057 0.508954 14.1598C1.72358 17.135 4.73271 19.2582 8.58816 19.8658C9.54418 20.0161 11.4562 20.0161 12.4201 19.8658C13.0627 19.7593 13.8071 19.5777 14.7475 19.2896L15.1079 19.1768L15.4057 19.3898C15.8054 19.6654 16.4244 19.8846 17.0435 19.966C19.1279 20.2416 21.1184 18.801 20.9851 17.1036C20.946 16.6339 20.7109 16.1328 20.2172 15.494L19.9899 15.1996L20.1858 14.8426C20.2877 14.6484 20.468 14.2475 20.5777 13.9532C21.8236 10.5146 20.3504 7.33902 15.6565 3.2866C14.4654 2.25941 11.8167 0.380388 11.1976 0.123589C10.8607 -0.0142059 10.3435 -0.039259 10.0065 0.060955ZM11.2838 1.60801C15.3038 4.28874 18.1719 7.19496 19.1201 9.53747C19.5825 10.6899 19.6765 11.4979 19.4727 12.5877C19.3787 13.1013 19.0888 14.0471 19.0026 14.116C18.9869 14.1285 18.791 13.9719 18.5637 13.7778C17.8898 13.2078 17.8585 13.189 17.545 13.189C17.2943 13.189 17.2002 13.2391 16.7849 13.5774C15.6016 14.567 14.7318 15.5628 14.3086 16.4147C14.0814 16.8656 14.0814 16.8719 14.1989 18.0369C14.2224 18.206 14.1911 18.2311 13.7679 18.3626C12.7806 18.6695 12.0831 18.776 10.8137 18.8073C9.88114 18.8323 9.43447 18.8135 8.90944 18.7384C5.60253 18.2436 2.92253 16.3583 1.8803 13.8154C1.62954 13.2015 1.41013 12.1556 1.41013 11.5793C1.41013 10.7901 1.76276 9.61263 2.27995 8.7107L2.49937 8.3161L3.1968 8.35368C3.76884 8.37874 4.00393 8.35995 4.45844 8.24721C5.5085 7.99041 6.41751 7.27012 6.73879 6.43709C7.00523 5.76064 6.9347 5.18441 6.50371 4.46412L6.33131 4.16974L6.60558 3.89415C7.18546 3.33671 10.2808 1.16331 10.5002 1.16331C10.5629 1.16331 10.9155 1.36374 11.2838 1.60801ZM3.95692 3.49329C4.57598 4.11337 5.19505 4.89003 5.36745 5.25957C5.73575 6.02997 4.9913 6.982 3.87072 7.18243C2.77364 7.3766 1.7079 6.81915 1.47282 5.91096C1.35527 5.47879 1.48065 5.18441 2.07621 4.45159C2.52288 3.90041 3.36136 3.04233 3.44756 3.04233C3.4789 3.04233 3.70615 3.24902 3.95692 3.49329ZM18.0622 15.0806C18.9555 15.9762 19.5903 16.8594 19.5903 17.2164C19.5903 17.7613 19.0653 18.4064 18.407 18.6695C17.3491 19.1017 15.9778 18.6069 15.633 17.6736C15.4841 17.279 15.4841 17.135 15.6486 16.8093C15.8759 16.327 17.3648 14.6296 17.5529 14.6296C17.5842 14.6296 17.8115 14.8363 18.0622 15.0806Z" fill="#A3CFD4"/>
</svg>
