<svg width="29" height="27" viewBox="0 0 29 27" fill="none" xmlns="http://www.w3.org/2000/svg">
<g id="Group">
<path id="Vector" d="M11.2855 0.0846543C11.2178 0.126941 10.8228 0.708382 10.4166 1.3744C9.796 2.3787 9.67188 2.66414 9.67188 3.06586C9.67188 4.08074 10.394 4.75732 11.4773 4.75732C12.5605 4.75732 13.2827 4.08074 13.2827 3.06586C13.2827 2.66414 13.1586 2.3787 12.538 1.3744C11.8722 0.285516 11.6578 8.10623e-05 11.4773 8.10623e-05C11.4434 8.10623e-05 11.3644 0.0423679 11.2855 0.0846543ZM11.9625 1.98755C12.5718 2.98129 12.6057 3.28786 12.1769 3.70016C11.9399 3.92216 11.7255 4.01731 11.4773 4.01731C10.9469 4.01731 10.4166 3.48873 10.4956 3.03415C10.552 2.717 11.3532 1.27925 11.4773 1.27925C11.5111 1.27925 11.7255 1.5964 11.9625 1.98755Z" fill="#A3CFD4"/>
<path id="Vector_2" d="M18.7777 2.29386C18.631 2.51586 18.1346 3.30874 17.6719 4.05932C16.882 5.35964 16.8369 5.46535 16.8369 6.06794C16.8482 7.43168 17.8412 8.37256 19.2629 8.37256C20.6847 8.37256 21.6777 7.43168 21.689 6.06794C21.689 5.46535 21.6438 5.35964 20.8539 4.05932C19.6127 2.04014 19.5112 1.90271 19.2629 1.90271C19.1275 1.90271 18.9357 2.06128 18.7777 2.29386ZM20.0979 4.40819C20.9329 5.80365 21.0345 6.28994 20.617 6.92424C19.7933 8.18227 17.6832 7.60083 17.6832 6.1208C17.6832 5.74022 17.8299 5.4125 18.4279 4.40819C18.8341 3.7316 19.2065 3.17131 19.2629 3.17131C19.3194 3.17131 19.6917 3.7316 20.0979 4.40819Z" fill="#A3CFD4"/>
<path id="Vector_3" d="M14.1063 6.1527C14.0386 6.2267 13.7791 6.639 13.5196 7.06186C12.9892 7.91817 12.9554 8.27761 13.3954 8.33046C13.6324 8.35161 13.7339 8.26703 14.016 7.82302C14.1966 7.53759 14.3771 7.29444 14.411 7.29444C14.5802 7.29444 18.2475 13.426 18.4167 14.0074C18.9583 15.7518 18.0218 17.6969 16.239 18.5215C15.5506 18.8387 15.4039 18.8704 14.411 18.8704C13.418 18.8704 13.2713 18.8387 12.583 18.5215C10.8002 17.6969 9.8636 15.7518 10.4052 14.0074C10.5068 13.6586 11.0823 12.5908 11.669 11.6394C12.7861 9.84221 12.8538 9.60963 12.3009 9.53563C12.0075 9.49334 12.0188 9.49334 10.8114 11.4702C9.62664 13.3943 9.42353 13.9546 9.42353 15.128L9.43482 15.9632H8.50954C7.38116 15.9738 6.09481 16.1218 5.28237 16.3438C4.56021 16.5341 3.91703 17.0732 3.91703 17.4855C3.91703 18.2044 4.46994 18.6167 5.75629 18.8175C6.16251 18.8915 6.55744 19.0078 6.63643 19.0924C6.97495 19.473 6.25278 19.6421 3.40926 19.8747C1.14122 20.065 0.17081 20.3927 0.0241203 21.0164C-0.111285 21.619 0.328783 22.137 1.20892 22.3908C1.96494 22.6128 3.53338 22.7291 5.8917 22.7291C8.38542 22.7291 9.49123 22.8348 9.77333 23.0885C10.0329 23.3422 9.75076 23.5325 8.83677 23.7228C7.7761 23.9448 7.31346 24.2937 7.22319 24.928C7.16677 25.3508 7.18934 25.4037 7.60684 25.7737C8.53211 26.6088 10.7889 27 14.5238 27C18.191 26.9894 20.3463 26.5983 21.2264 25.7843C21.6326 25.4037 21.6552 25.3403 21.5988 24.9174C21.5085 24.2937 21.0459 23.9448 19.9852 23.7228C18.8681 23.4902 18.6311 23.1942 19.3533 22.9193C19.5225 22.8559 20.7638 22.7713 22.1404 22.7396L24.6228 22.6762V22.359V22.0419H22.0275C19.5564 22.0419 19.4097 22.0525 18.9132 22.285C17.6946 22.8453 17.9315 23.9659 19.342 24.3571C19.7031 24.4628 20.1657 24.5897 20.3688 24.6531C20.6396 24.7271 20.7299 24.8117 20.7299 25.0125C20.7299 25.3508 20.0754 25.6574 18.7665 25.9217C17.435 26.1966 13.3164 26.3023 11.5787 26.1226C9.3784 25.8794 8.09204 25.4777 8.09204 25.0125C8.09204 24.7377 8.25002 24.6637 9.3784 24.3677C10.5519 24.0611 11.0033 23.3422 10.4391 22.6762C9.96515 22.1053 9.67177 22.063 6.06096 21.9785C2.19061 21.8833 0.870406 21.7142 0.870406 21.2807C0.870406 21.0376 1.52487 20.8473 2.78865 20.731C3.44311 20.657 4.45866 20.5619 5.04541 20.509C6.94109 20.3187 7.52785 20.0227 7.52785 19.2404C7.52785 18.6273 6.86211 18.1832 5.68859 18.0247C5.39521 17.9824 5.03413 17.8661 4.89872 17.7604C4.69562 17.6018 4.68433 17.5489 4.80845 17.4009C5.11312 17.0626 7.25704 16.7032 8.98346 16.7032H9.64921L10.0103 17.2952C10.7776 18.5744 12.1091 19.4413 13.6662 19.6844C15.6748 19.991 17.7848 19.0078 18.8229 17.2847L19.1953 16.6715L20.5042 16.7349C22.6707 16.8512 24.2166 17.2107 24.0812 17.5807C24.0135 17.7709 23.5847 17.9401 22.7046 18.1198C21.7116 18.3312 21.2941 18.6695 21.2941 19.2616C21.2941 20.0227 21.8809 20.3081 23.833 20.509C24.4536 20.5724 25.424 20.6676 25.9994 20.7204C28.2449 20.9424 28.6173 21.4499 26.778 21.767C26.0671 21.8939 25.864 22.137 26.2138 22.4648C26.3492 22.581 26.5072 22.6128 26.8006 22.5599C28.2788 22.3379 28.9784 21.7882 28.7978 21.0164C28.6399 20.3504 27.7146 20.0756 24.8936 19.8218C22.6707 19.6316 22.3548 19.5787 22.1855 19.3778C21.9598 19.1347 22.2871 18.9338 23.0882 18.807C23.9796 18.6801 24.589 18.3947 24.7695 18.0247C25.3788 16.7878 23.6298 15.9738 20.3124 15.9632H19.3871L19.3984 15.128C19.3984 14.6629 19.3194 14.0392 19.2179 13.722C19.0712 13.2463 17.3222 10.2862 15.1783 6.87157C14.6818 6.0787 14.3546 5.8567 14.1063 6.1527Z" fill="#A3CFD4"/>
<path id="Vector_4" d="M16.4309 16.3755C16.0134 16.8618 15.0994 17.3376 14.5803 17.3376C14.0161 17.3376 13.7453 17.7816 14.1403 18.0776C14.4336 18.3207 15.5959 18.0459 16.318 17.5807C17.0402 17.105 17.469 16.4918 17.2772 16.2064C17.0628 15.8787 16.8145 15.9315 16.4309 16.3755Z" fill="#A3CFD4"/>
</g>
</svg>
